PathFileType	4	(X/Y/Z)	C:\Users\dbl\Desktop\20210112\20210112\bx_n_5_1802.trc
DataRate	CameraRate	NumFrames	NumMarkers	Units	OrigDataRate	OrigDataStartFrame	OrigNumFrames
50.00	50.00	       9	43	mm	50.00	458	       523
Frame#	Time	Top.Head			R.Acromium			L.Acromium			Sternum			R.ASIS			L.ASIS			V.Sacral			R.Thigh.Upper			R.Thigh.Front			R.Thigh.Rear			R.Knee.Lat			R.Knee.Med			R.Shank.Upper			R.Shank.Front			R.Shank.Rear			R.Ankle.Lat			R.Midfoot.Lat			R.Toe.Lat			R.Toe.Tip			R.Toe.Med			R.Ankle.Med			R.Midfoot.Sup			R.Heel			L.Thigh.Upper			L.Thigh.Front			L.Thigh.Rear			L.Knee.Lat			L.Knee.Med			L.Shank.Upper			L.Shank.Front			L.Shank.Rear			L.Ankle.Lat			L.Midfoot.Lat			L.Toe.Lat			L.Toe.Tip			L.Toe.Med			L.Ankle.Med			L.Midfoot.Sup			L.Heel			origin1 front left			origin2 front right			origin 3 back right			origin 4 back leftt			
		X1	Y1	Z1	X2	Y2	Z2	X3	Y3	Z3	X4	Y4	Z4	X5	Y5	Z5	X6	Y6	Z6	X7	Y7	Z7	X8	Y8	Z8	X9	Y9	Z9	X10	Y10	Z10	X11	Y11	Z11	X12	Y12	Z12	X13	Y13	Z13	X14	Y14	Z14	X15	Y15	Z15	X16	Y16	Z16	X17	Y17	Z17	X18	Y18	Z18	X19	Y19	Z19	X20	Y20	Z20	X21	Y21	Z21	X22	Y22	Z22	X23	Y23	Z23	X24	Y24	Z24	X25	Y25	Z25	X26	Y26	Z26	X27	Y27	Z27	X28	Y28	Z28	X29	Y29	Z29	X30	Y30	Z30	X31	Y31	Z31	X32	Y32	Z32	X33	Y33	Z33	X34	Y34	Z34	X35	Y35	Z35	X36	Y36	Z36	X37	Y37	Z37	X38	Y38	Z38	X39	Y39	Z39	X40	Y40	Z40	X41	Y41	Z41	X42	Y42	Z42	X43	Y43	Z43	

458	9.140	-663.97833	126.47308	1853.17981	-649.52301	-54.93944	1546.45898	-661.63208	301.88763	1539.41797	-571.36755	114.94035	1356.70471	-594.09406	-3.05042	1061.54065	-608.90778	246.75313	1069.29175	-803.20569	97.57680	1058.33630	-665.41150	-69.10303	878.22748	-588.75085	-7.32877	807.86664	-688.95502	-56.12445	763.01080	-707.25311	-31.24084	618.00739	-684.28125	75.94953	577.03894	-714.02405	-28.32993	571.04089	-662.56696	17.04404	521.15308	-760.18219	-38.40643	491.66257	-759.24658	-17.62177	207.74199	-651.29218	-70.18446	159.82274	-609.27307	-77.81822	156.72704	-549.83588	-32.45330	163.03569	-597.70557	22.79134	169.49402	-715.02838	69.21011	216.10623	-672.17706	51.54559	159.59286	-789.44946	42.54673	176.66745	-693.63867	291.20154	877.67249	-588.80542	222.69797	820.82135	-699.60638	272.46506	746.44507	-726.24359	251.51878	643.95227	-678.79791	147.88708	583.11652	-724.20166	247.45296	578.69379	-668.52991	208.55420	537.25378	-765.35822	256.50928	504.23438	-769.13708	226.16014	204.92143	-662.15656	299.42432	156.24036	-625.40588	308.13614	157.72861	-556.67126	256.68845	164.47656	-592.72168	221.78108	174.66386	-710.79932	155.18983	216.84952	-675.00916	174.71822	158.61169	-795.30231	176.60518	185.15569	-528.34119	304.30167	146.63397	-517.56744	-72.94312	143.17812	-875.88000	-78.70524	141.22247	-882.62909	296.15283	144.60907	
459	9.160	-667.35071	126.27092	1853.20142	-651.74506	-55.32594	1546.67322	-664.74786	301.58792	1539.02405	-571.76086	114.72612	1357.04065	-591.85339	-2.88936	1061.15369	-607.10388	246.73697	1069.04590	-800.91949	97.14471	1057.65918				-586.66711	-7.04002	807.45282	-687.03168	-56.24150	762.82166	-706.25568	-31.49106	618.01263	-683.91852	75.81663	576.94946	-713.28302	-28.60806	571.02521	-662.03821	16.99214	521.00342	-759.51471	-38.76942	491.60370	-759.16632	-17.64326	207.73132	-651.29285	-70.16547	159.84598	-609.26343	-77.78171	156.68864	-549.81909	-32.43092	163.05156	-597.65051	22.87247	169.40262	-715.06274	69.23801	216.03476	-672.11572	51.63758	159.46352	-789.53680	42.58801	176.69217	-692.31018	291.24298	877.63776	-587.70245	222.72528	820.04633	-699.29840	272.44040	746.43420	-726.92010	251.38318	644.24829	-679.66345	147.98526	583.01508	-725.34900	247.43633	578.72449	-669.65704	208.60873	537.34448	-766.41705	256.46225	504.35199	-769.29279	226.02135	204.97014	-662.17346	299.49442	156.14131	-625.42871	308.21515	157.65173	-556.67035	256.71759	164.43102	-592.70959	221.83830	174.70325	-710.94940	155.14513	216.94365	-674.95288	174.68193	158.62772	-795.32422	176.57571	185.10469	-528.31348	304.31802	146.61780	-517.55994	-72.94289	143.15662	-875.89557	-78.71597	141.22020	-882.62286	296.15308	144.62137	
460	9.180	-670.51819	125.92522	1853.21228	-653.78772	-55.71836	1546.88013	-667.47260	301.38397	1538.68677	-572.06116	114.46778	1357.34912	-589.84991	-2.70199	1060.68604	-605.24768	246.60600	1068.78772	-798.72552	96.72461	1057.06384				-584.79279	-6.79236	807.08142	-685.26349	-56.36674	762.59686	-705.34033	-31.76612	618.04724	-683.56012	75.67330	576.87097	-712.61047	-28.83250	571.04407	-661.54492	16.95774	520.92377	-758.95752	-39.04745	491.56955	-759.09662	-17.64775	207.71768	-651.30511	-70.13947	159.85184	-609.23077	-77.72620	156.61185	-549.79718	-32.42410	163.05386	-597.59222	22.93302	169.32880	-715.04535	69.27623	216.00597	-672.01178	51.71420	159.36946	-789.60980	42.65421	176.75478	-690.87610	291.14441	877.59375	-586.47992	222.76038	819.33728	-698.75122	272.45688	746.41809	-727.25653	251.26518	644.47131	-680.18414	148.09114	582.84998	-726.05475	247.44807	578.71552	-670.32849	208.67302	537.42126	-767.10211	256.44351	504.44498	-769.38672	225.94527	205.01802	-662.17224	299.56638	156.01552	-625.42914	308.28671	157.57425	-556.66241	256.75110	164.37482	-592.65753	221.88278	174.70895	-711.06342	155.08115	216.98242	-674.88397	174.63690	158.67342	-795.28094	176.56824	185.12642	-528.27783	304.34949	146.61752	-517.55365	-72.88235	143.10704	-875.90631	-78.73895	141.22577	-882.61975	296.15012	144.62543	
461	9.200	-673.53522	125.47933	1853.16260	-655.60364	-56.11434	1547.05115	-669.81079	301.20471	1538.36902	-572.30688	114.16423	1357.65466	-588.00409	-2.57183	1060.19324	-603.36383	246.39421	1068.53284	-796.67761	96.34376	1056.58984				-583.12213	-6.63604	806.73560	-683.68103	-56.48978	762.36505	-704.51575	-32.06817	618.09515	-683.19019	75.50507	576.82172	-711.96783	-28.95669	571.01959	-661.08563	16.96143	520.88879	-758.50958	-39.26040	491.60489	-759.02429	-17.63465	207.74371	-651.30261	-70.09902	159.85979	-609.18298	-77.65041	156.55377	-549.74487	-32.41272	163.04257	-597.54578	22.96714	169.25537	-714.94000	69.34560	216.00357	-671.89484	51.76981	159.31403	-789.61450	42.75319	176.80377	-689.34503	290.94135	877.51917	-585.13794	222.69736	818.69366	-697.94653	272.47537	746.40472	-727.23572	251.17439	644.60895	-680.46735	148.14481	582.62665	-726.34766	247.44958	578.71210	-670.62830	208.68517	537.49957	-767.45398	256.43893	504.50769	-769.40424	225.91266	205.05710	-662.14923	299.59949	155.92438	-625.41016	308.30521	157.51595	-556.64783	256.77792	164.33791	-592.56506	221.88393	174.69144	-711.14203	154.96902	217.00691	-674.82983	174.60872	158.72324	-795.18726	176.55560	185.18326	-528.25964	304.36618	146.62431	-517.55713	-72.78763	142.99722	-875.90912	-78.76635	141.22972	-882.61139	296.15173	144.62631	
462	9.220	-676.41681	124.99767	1853.02844	-657.20728	-56.53307	1547.16003	-671.83948	300.94382	1538.05347	-572.49274	113.83242	1357.94202	-586.24683	-2.59058	1059.70386	-601.47809	246.15550	1068.29004	-794.82104	96.00726	1056.27148				-581.63348	-6.62666	806.40314	-682.30890	-56.60419	762.15741	-703.79181	-32.37742	618.10327	-682.80945	75.32777	576.79431	-711.36432	-29.02888	570.92780	-660.66205	16.98436	520.87915	-758.13068	-39.42967	491.69708	-758.95612	-17.59798	207.82050	-651.25952	-70.04077	159.90186	-609.17590	-77.57877	156.59343	-549.65570	-32.37701	163.03476	-597.52612	22.97037	169.18600	-714.75244	69.45489	216.02048	-671.79529	51.80847	159.28551	-789.54926	42.86866	176.80968	-687.73578	290.71097	877.39996	-583.72620	222.41895	818.10474	-696.92053	272.41898	746.36371	-726.91309	251.10953	644.65460	-680.56458	148.10780	582.38617	-726.31268	247.41591	578.73627	-670.70190	208.60805	537.55304	-767.54529	256.40881	504.51358	-769.36066	225.89003	205.08923	-662.12390	299.57169	155.91051	-625.37573	308.25418	157.50482	-556.61639	256.78632	164.31729	-592.44934	221.82008	174.66650	-711.19037	154.81599	217.05898	-674.81348	174.60522	158.73329	-795.08020	176.51355	185.23378	-528.27063	304.35040	146.63007	-517.56610	-72.69595	142.84390	-875.90045	-78.77881	141.22696	-882.60089	296.16031	144.63052	
463	9.240	-679.14227	124.53878	1852.82385	-658.67804	-56.99844	1547.21021	-673.64209	300.54166	1537.73608	-572.58990	113.47102	1358.18066	-584.57617	-2.82278	1059.27930	-599.59570	245.88565	1068.06909	-793.14313	95.74277	1056.09875				-580.31165	-6.76622	806.06488	-681.11914	-56.72927	761.97736	-703.13446	-32.64413	618.02350	-682.42578	75.17400	576.75574	-710.82013	-29.14531	570.82190	-660.25952	17.00751	520.87671	-757.76123	-39.58093	491.80594	-758.89673	-17.52462	207.92090	-651.17102	-69.96977	159.99738	-609.22974	-77.52419	156.73689	-549.53619	-32.31164	163.04642	-597.53821	22.95828	169.13054	-714.54285	69.58105	216.03812	-671.74414	51.83356	159.26744	-789.48218	42.97201	176.80890	-686.05304	290.49164	877.23071	-582.33496	221.86993	817.56915	-695.76111	272.23901	746.26910	-726.39722	251.07436	644.62299	-680.49945	147.96245	582.16156	-726.07025	247.35452	578.78876	-670.67786	208.44980	537.56244	-767.46106	256.32062	504.44424	-769.28320	225.87093	205.11945	-662.11163	299.49518	155.97162	-625.33032	308.16602	157.54774	-556.56860	256.77954	164.30479	-592.34662	221.70555	174.63655	-711.21527	154.66602	217.14063	-674.83972	174.61705	158.68098	-794.99915	176.46004	185.27341	-528.30389	304.30740	146.63312	-517.56610	-72.64187	142.71115	-875.88208	-78.76886	141.22250	-882.59937	296.16531	144.62831	
464	9.260	-681.69568	124.13348	1852.57813	-660.10468	-57.51814	1547.22180	-675.27057	300.00162	1537.41003	-572.61066	113.03835	1358.37207	-583.00793	-3.26606	1059.03467	-597.73877	245.53746	1067.87549	-791.59015	95.57990	1055.99622				-579.13000	-7.01066	805.70837	-680.07257	-56.91423	761.81927	-702.51160	-32.84026	617.86237	-682.05988	75.04919	576.69696	-710.33807	-29.34410	570.75665	-659.87042	17.02315	520.84845	-757.36194	-39.73455	491.89114	-758.82782	-17.42802	208.01115	-651.07294	-69.90304	160.12376	-609.29321	-77.47527	156.90959	-549.40442	-32.22663	163.07361	-597.56805	22.94093	169.08339	-714.38831	69.68150	216.03241	-671.75409	51.85475	159.25427	-789.46619	43.05283	176.84103	-684.33875	290.27112	877.02319	-581.05176	221.09506	817.10522	-694.57642	271.95786	746.15179	-725.79700	251.07245	644.56146	-680.33221	147.72128	581.94385	-725.73755	247.30132	578.85211	-670.63184	208.25058	537.53613	-767.26740	256.19098	504.32361	-769.19287	225.85625	205.14526	-662.10217	299.40100	156.07468	-625.28888	308.08585	157.61552	-556.51501	256.76654	164.30536	-592.28247	221.57825	174.60481	-711.22144	154.55603	217.21730	-674.88226	174.62299	158.60201	-794.96387	176.43333	185.31601	-528.33893	304.26172	146.63383	-517.55139	-72.63465	142.64371	-875.86420	-78.74981	141.22058	-882.60858	296.15802	144.60925	
465	9.280	-684.07959	123.76649	1852.30640	-661.51196	-58.07968	1547.19849	-676.71387	299.37430	1537.07971	-572.63342	112.46960	1358.54016	-581.54633	-3.85031	1058.98376	-595.95111	245.09203	1067.68628	-790.11633	95.48106	1055.86646				-578.05145	-7.30048	805.35364	-679.15234	-57.19118	761.68134	-701.93994	-32.99800	617.67041	-681.72974	74.91846	576.64880	-709.91614	-29.59842	570.73535	-659.51422	17.01512	520.75641	-756.93347	-39.89449	491.91623	-758.72638	-17.34551	208.06537	-651.02521	-69.86302	160.22531	-609.31427	-77.42455	157.04732	-549.29077	-32.13835	163.09964	-597.58923	22.91724	169.03923	-714.31628	69.74121	216.00740	-671.79773	51.88210	159.24466	-789.48944	43.12438	176.89374	-682.67859	290.03922	876.80554	-579.89941	220.22130	816.71265	-693.44702	271.63614	746.05414	-725.17694	251.08281	644.51855	-680.17517	147.42091	581.72278	-725.40332	247.28120	578.90778	-670.59106	208.05174	537.48560	-767.01178	256.07245	504.21268	-769.10291	225.83498	205.17232	-662.08118	299.32062	156.17477	-625.26929	308.03476	157.67146	-556.46783	256.75381	164.32385	-592.25464	221.47090	174.57916	-711.22180	154.49301	217.25789	-674.90375	174.59859	158.56659	-794.96436	176.42891	185.36584	-528.35620	304.23694	146.63319	-517.53320	-72.65117	142.63701	-875.85461	-78.73637	141.22046	-882.61676	296.15070	144.59027	
466	9.300	-686.28442	123.41317	1852.00977	-662.85785	-58.66216	1547.13501	-677.91504	298.72885	1536.76599	-572.74670	111.74852	1358.67847	-580.20081	-4.49282	1058.97571	-594.27295	244.58473	1067.47754	-788.69147	95.36035	1055.65588				-577.04254	-7.59702	805.02759	-678.32190	-57.56338	761.56799	-701.45825	-33.17702	617.50214	-681.44208	74.74188	576.63147	-709.56805	-29.88741	570.73871	-659.21301	16.94965	520.59442	-756.52820	-40.05613	491.85406	-758.60315	-17.29498	208.07439	-651.05231	-69.85307	160.26743	-609.29456	-77.38124	157.13683	-549.21796	-32.06407	163.11909	-597.58771	22.89887	169.00549	-714.28802	69.78842	215.99417	-671.82849	51.90707	159.22940	-789.51904	43.19582	176.93906	-681.12872	289.79413	876.60553	-578.82275	219.41458	816.35327	-692.40411	271.33246	745.97137	-724.54492	251.04626	644.51263	-680.16071	147.08269	581.52429	-725.10193	247.27773	578.95819	-670.53455	207.87004	537.41364	-766.73175	255.98807	504.17090	-769.01788	225.79372	205.21524	-662.05414	299.27222	156.23647	-625.27051	308.00577	157.69786	-556.43768	256.74826	164.35367	-592.24237	221.39082	174.56451	-711.22986	154.46129	217.25371	-674.89374	174.54099	158.59598	-794.97272	176.40923	185.41428	-528.34961	304.23871	146.63319	-517.52405	-72.67035	142.67433	-875.85291	-78.73134	141.22041	-882.61169	296.16122	144.59711	
